# xmcd
#
# Track frame offsets: 
#        150
#        21235
#        41487
#        62650
#        81035
#        101507
#        119995
#        138395
#        155222
#        175752
#        195877
#
# Disc length: 2729 seconds
#
# Revision: 10
# Processed by: cddbd v1.5.2PL0 Copyright (c) Steve Scherf et al.
# Submitted via: ExactAudioCopy v1.0b3
#
DISCID=920aa70b
DTITLE=松たか子 - A Piece Of Life
DYEAR=2001
DGENRE=JPop
TTITLE0=コイシイヒト
TTITLE1=雨の色
TTITLE2=A Bird
TTITLE3=Another Birthday
TTITLE4=優しい風
TTITLE5=Sha La La
TTITLE6=Pianissimo
TTITLE7=ゆびさき
TTITLE8=A Piece Of Life
TTITLE9=沈丁花
TTITLE10=(Bonus Track)
EXTD=YEAR: 2001
EXTT0=
EXTT1=
EXTT2=
EXTT3=
EXTT4=
EXTT5=
EXTT6=
EXTT7=
EXTT8=
EXTT9=
EXTT10=
PLAYORDER=
